<?xml version="1.0" encoding="UTF-8"?>
<svg id="Capa_1" enable-background="new 0 0 502 502" height="512" viewBox="0 0 502 502" width="512" xmlns="http://www.w3.org/2000/svg" xmlns:xlink="http://www.w3.org/1999/xlink">
    <linearGradient id="lg1">
        <stop offset="0" stop-color="#74d2e8"/>
        <stop offset="1" stop-color="#baeaf5"/>
    </linearGradient>
    <linearGradient id="SVGID_1_" gradientUnits="userSpaceOnUse" x1="326.152" x2="326.152" xlink:href="#lg1" y1="355.645" y2="426.739"/>
    <linearGradient id="SVGID_2_" gradientUnits="userSpaceOnUse" x1="87.885" x2="-29.124" xlink:href="#lg1" y1="267.273" y2="267.273"/>
    <linearGradient id="SVGID_4_" gradientUnits="userSpaceOnUse" x1="276.715" x2="276.715" xlink:href="#lg1" y1="181.486" y2="75.075"/>
    <linearGradient id="SVGID_5_" gradientUnits="userSpaceOnUse" x1="169.198" x2="395.461" y1="267.275" y2="267.275">
        <stop offset="0" stop-color="#d4dbdb"/>
        <stop offset="1" stop-color="#f3f3f3"/>
    </linearGradient>
    <linearGradient id="SVGID_6_" gradientUnits="userSpaceOnUse" x1="293.069" x2="293.069" xlink:href="#lg1" y1="324.576" y2="138.492"/>
    <linearGradient id="SVGID_7_" gradientUnits="userSpaceOnUse" x1="230.794" x2="230.794" xlink:href="#lg1" y1="312.249" y2="410.468"/>
    <g>
        <path d="m278.953 379.412c-5.173 31.635 32.639 52.111 55.958 30.116 23.963-22.603 38.921-54.65 38.921-90.191v-8.706c0-19.112-15.493-34.605-34.605-34.605h-22.566c-19.25 0-34.797 15.714-34.61 34.963.254 26.247.168 48.448-3.098 68.423z" fill="url(#SVGID_1_)"/>
        <path d="m16.452 170.014c-13.339 1.11-20.849 15.929-13.681 27.233 11.486 18.114 21.635 39.162 21.635 70.028 0 30.865-10.148 51.913-21.634 70.026-7.168 11.304.341 26.124 13.68 27.233 54.6 4.538 105.452-38.382 105.452-97.259 0-58.852-50.831-101.807-105.452-97.261z" fill="url(#SVGID_2_)"/>
        <path d="m16.452 170.014c-13.339 1.11-20.849 15.929-13.681 27.233 11.486 18.114 21.635 39.162 21.635 70.028 0 30.865-10.148 51.913-21.634 70.026-7.168 11.304.341 26.124 13.68 27.233 54.6 4.538 105.452-38.382 105.452-97.259 0-58.852-50.831-101.807-105.452-97.261z" fill="url(#SVGID_2_)"/>
        <path d="m356.672 184.323c0-75.509-85.254-123.039-150.666-90.771-9.523 4.698-12.238 16.968-5.566 25.229 18.574 23 32.512 52.66 32.512 88.481z" fill="url(#SVGID_4_)"/>
        <path d="m84.145 267.275c0 56.998 131.434 113.996 233.645 113.996 79.845 0 133.393-35.596 169.85-80.071 21.152-25.804 18.698-63.501-5.783-86.171-40.815-37.796-100.477-61.749-164.068-61.749-102.21-.001-233.644 56.997-233.644 113.995z" fill="url(#SVGID_5_)"/>
        <path d="m489.983 298.138c18.572-25.651 15.405-61.319-8.126-83.109-40.815-37.796-100.477-61.749-164.067-61.749-102.211 0-233.645 56.998-233.645 113.996 0 28.133 32.029 56.26 76.75 77.539 78.566-58.444 257.87-160.246 329.088-46.677z" fill="url(#SVGID_6_)"/>
        <path d="m246.135 289.758c-2.943 0-5.886-1.122-8.132-3.368-8.447-8.446-13.099-19.678-13.099-31.623 0-11.946 4.651-23.178 13.099-31.624 4.492-4.491 11.773-4.49 16.264 0 4.491 4.491 4.491 11.773 0 16.264-4.104 4.103-6.362 9.558-6.362 15.36s2.259 11.257 6.362 15.359c4.491 4.49 4.491 11.772 0 16.264-2.245 2.245-5.189 3.368-8.132 3.368z" fill="#17c5d9"/>
        <path d="m196.758 289.758c-2.943 0-5.886-1.123-8.132-3.368-8.446-8.447-13.099-19.678-13.099-31.623 0-11.946 4.652-23.177 13.099-31.624 4.492-4.49 11.771-4.49 16.264 0 4.491 4.491 4.491 11.772 0 16.264-4.102 4.103-6.362 9.558-6.362 15.36s2.26 11.257 6.362 15.359c4.491 4.491 4.491 11.772 0 16.264-2.246 2.245-5.189 3.368-8.132 3.368z" fill="#17c5d9"/>
        <path d="m183.594 376.858c-5.173 31.635 32.639 52.111 55.958 30.116 23.963-22.603 38.921-54.65 38.921-90.191v-8.706c0-19.112-15.493-34.605-34.605-34.605h-22.566c-19.25 0-34.797 15.714-34.61 34.963.255 26.248.169 48.449-3.098 68.423z" fill="url(#SVGID_7_)"/>
        <g>
            <ellipse cx="300.545" cy="278.258" fill="#eaadcd" rx="14.936" ry="12.003"/>
            <ellipse cx="476.316" cy="278.258" fill="#eaadcd" rx="14.936" ry="12.003"/>
            <circle cx="326.152" cy="248.64" fill="#fff" r="29.618"/>
            <circle cx="338.117" cy="248.64" fill="#3b3b44" transform="matrix(.23 -.973 .973 .23 18.445 520.587)" r="17.652"/>
            <circle cx="450.709" cy="248.64" fill="#fff" r="29.618"/>
            <g fill="#3b3b44">
                <circle cx="462.613" cy="248.64" transform="matrix(.707 -.707 .707 .707 -40.319 399.942)" r="17.652"/>
                <ellipse cx="388.431" cy="271.093" rx="13.252" ry="17.352"/>
            </g>
        </g>
        <path d="m84.145 267.275c0-1.122.051-2.243.153-3.365.595-6.59-2.893-12.869-8.897-15.651-9.774-4.529-20.99 2.054-21.971 12.782-.189 2.072-.285 4.151-.285 6.234 0 16.425 5.947 32.564 17.336 47.911-5.972 5.631-12.886 10.081-20.234 13.221-6.778 2.897-10.502 10.242-8.981 17.455 2.007 9.518 12.206 14.992 21.151 11.173 20.334-8.682 37.554-24.125 48.152-43.986-16.499-14.472-26.424-30.122-26.424-45.774z" fill="#17c5d9"/>
        <g fill="#dff7fa">
            <path d="m348.345 192.319c-.443 0-.892-.029-1.343-.09-9.648-1.295-19.478-1.951-29.213-1.951-5.85 0-11.975.221-18.207.657-5.509.386-10.288-3.77-10.674-9.277-.386-5.51 3.769-10.288 9.277-10.674 6.695-.469 13.29-.706 19.604-.706 10.622 0 21.346.716 31.873 2.129 5.474.734 9.315 5.768 8.581 11.241-.674 5.023-4.967 8.671-9.898 8.671z"/>
            <path d="m397.981 204.817c-1.176 0-2.372-.209-3.537-.65-3.023-1.144-6.12-2.233-9.204-3.237-5.252-1.711-8.122-7.355-6.412-12.605 1.711-5.252 7.354-8.124 12.605-6.412 3.38 1.102 6.774 2.295 10.089 3.55 5.165 1.954 7.768 7.726 5.813 12.892-1.513 3.999-5.315 6.462-9.354 6.462z"/>
        </g>
    </g>
</svg>
